<?xml version="1.0" standalone="no"?>
<!DOCTYPE svg PUBLIC "-//W3C//DTD SVG 20010904//EN"
 "http://www.w3.org/TR/2001/REC-SVG-20010904/DTD/svg10.dtd">
<svg version="1.0" xmlns="http://www.w3.org/2000/svg"
 width="500.000000pt" height="300.000000pt" viewBox="0 0 500.000000 300.000000"
 preserveAspectRatio="xMidYMid meet">

<g transform="translate(0.000000,300.000000) scale(0.100000,-0.100000)"
fill="#000000" stroke="none">
<path d="M1634 1848 c-35 -10 -54 -25 -77 -60 -15 -24 -17 -58 -17 -293 l0
-265 39 -39 c29 -29 49 -40 85 -45 25 -4 50 -4 56 -1 5 3 10 28 10 56 0 47 -1
49 -28 49 -15 0 -38 7 -50 16 -22 15 -22 18 -20 232 2 242 4 252 65 252 33 0
33 0 33 49 0 48 -1 49 -34 53 -18 2 -46 0 -62 -4z"/>
<path d="M1090 1832 c-52 -25 -70 -70 -70 -170 0 -116 14 -143 96 -182 35 -16
70 -30 77 -30 8 0 12 18 11 58 -2 81 -2 82 -19 82 -25 0 -55 38 -55 71 0 44
17 69 45 69 24 0 25 3 25 60 l0 60 -37 0 c-21 0 -54 -8 -73 -18z"/>
<path d="M1243 1790 c-1 -55 1 -60 21 -60 30 0 43 -11 51 -43 7 -25 11 -27 62
-27 l55 0 -4 60 c-6 86 -55 130 -146 130 l-38 0 -1 -60z"/>
<path d="M2062 1803 c3 -47 4 -48 38 -51 61 -6 60 -3 60 -248 0 -248 -1 -254
-66 -254 l-35 0 3 -52 c3 -53 3 -53 38 -54 19 -1 54 7 78 17 33 14 47 28 62
61 18 39 20 67 20 281 0 219 -2 241 -20 277 -25 49 -64 70 -130 70 l-51 0 3
-47z"/>
<path d="M2425 1831 c-64 -38 -65 -44 -65 -326 l0 -256 38 -39 c32 -34 44 -40
87 -42 l50 -3 3 55 c3 55 3 56 -30 65 l-33 10 -3 204 c-3 215 0 231 43 231 20
0 24 6 27 48 3 26 3 53 0 60 -6 19 -83 15 -117 -7z"/>
<path d="M2580 1791 c0 -61 0 -61 29 -61 34 0 43 -10 51 -60 5 -35 6 -35 55
-35 l50 0 3 66 c3 63 1 67 -32 104 -33 35 -41 39 -96 43 l-60 4 0 -61z"/>
<path d="M2890 1510 l0 -340 55 0 55 0 0 324 c0 178 -3 331 -6 340 -4 12 -20
16 -55 16 l-49 0 0 -340z"/>
<path d="M3287 1843 c-14 -14 -6 -106 18 -200 13 -54 45 -181 70 -282 25 -101
48 -188 51 -192 6 -10 97 -13 106 -4 3 3 -6 49 -19 103 -25 99 -39 157 -67
272 -8 36 -20 85 -26 110 -7 25 -13 52 -15 60 -2 8 -11 41 -19 73 -9 32 -16
60 -16 62 0 8 -76 6 -83 -2z"/>
<path d="M3630 1841 c0 -6 0 -158 0 -338 l-1 -328 181 -3 180 -2 0 54 0 55
-122 3 -123 3 -5 280 -5 280 -52 3 c-32 2 -53 -1 -53 -7z"/>
<path d="M1840 1640 c0 -41 -24 -66 -53 -55 -17 7 -41 -20 -32 -35 3 -5 20
-10 36 -10 29 0 30 -2 27 -37 -3 -35 -5 -38 -38 -41 -32 -3 -49 -15 -50 -34 0
-4 17 -8 38 -10 33 -3 37 -6 34 -28 -8 -63 -7 -65 13 -65 20 0 29 39 49 215 2
19 7 59 11 88 7 49 6 52 -14 52 -18 0 -21 -6 -21 -40z"/>
<path d="M1955 1643 c-10 -59 -14 -66 -32 -59 -9 4 -20 1 -25 -6 -15 -24 -8
-38 18 -38 22 0 25 -3 20 -22 -3 -13 -6 -31 -6 -40 0 -11 -10 -18 -27 -20 -38
-4 -45 -38 -8 -38 25 0 26 -1 19 -50 -6 -46 -5 -50 14 -50 21 0 32 24 32 73 0
25 3 27 40 27 33 0 40 3 40 20 0 16 -7 20 -36 20 -36 0 -36 1 -30 31 3 17 6
35 6 40 0 4 17 9 38 11 29 2 37 7 37 23 0 15 -7 19 -30 20 -29 0 -30 1 -28 48
1 40 -2 47 -17 47 -14 0 -21 -10 -25 -37z"/>
<path d="M3245 1669 c-3 -8 -12 -45 -21 -84 -15 -68 -30 -129 -59 -245 -8 -30
-19 -75 -25 -100 -6 -25 -13 -53 -16 -63 -5 -16 0 -18 53 -15 56 3 58 4 68 36
9 31 10 32 67 32 l58 0 -6 28 c-15 61 -32 97 -45 98 -8 1 -20 2 -27 3 -9 1
-10 6 -4 19 23 42 22 98 -2 195 -25 103 -32 119 -41 96z"/>
<path d="M1242 1504 c3 -61 6 -70 28 -81 33 -16 50 -41 50 -73 0 -35 -22 -63
-51 -65 -22 -2 -24 -6 -24 -61 0 -57 1 -59 27 -62 54 -6 107 16 134 58 24 37
26 45 22 143 -3 101 -4 106 -32 132 -27 25 -79 52 -134 69 -23 8 -23 7 -20
-60z"/>
<path d="M1019 1344 c-6 -7 -5 -31 2 -63 15 -70 53 -107 119 -116 28 -4 54 -5
57 -2 2 3 5 29 6 58 2 52 1 53 -31 61 -25 7 -34 15 -38 37 -6 27 -10 29 -56
33 -29 2 -54 -2 -59 -8z"/>
<path d="M2660 1336 c0 -27 -33 -56 -63 -56 -16 0 -18 -7 -15 -57 l3 -58 52 1
c84 2 133 55 133 145 l0 49 -55 0 c-52 0 -55 -1 -55 -24z"/>
</g>
</svg>
