<?xml version="1.0" standalone="no"?>
<!DOCTYPE svg PUBLIC "-//W3C//DTD SVG 20010904//EN"
 "http://www.w3.org/TR/2001/REC-SVG-20010904/DTD/svg10.dtd">
<svg version="1.0" xmlns="http://www.w3.org/2000/svg"
 width="312.000000pt" height="83.000000pt" viewBox="0 0 312.000000 83.000000"
 preserveAspectRatio="xMidYMid meet">

<g transform="translate(0.000000,83.000000) scale(0.100000,-0.100000)"
fill="#000000" stroke="none">
<path d="M135 737 c-54 -30 -68 -74 -63 -191 4 -89 5 -90 41 -121 20 -17 53
-37 74 -44 21 -7 44 -15 51 -17 9 -4 12 11 12 60 0 63 -1 67 -27 77 -36 13
-43 25 -43 75 0 45 14 64 47 64 21 0 23 4 23 60 l0 60 -37 0 c-21 0 -56 -11
-78 -23z"/>
<path d="M300 701 c0 -58 1 -60 28 -63 21 -2 29 -10 37 -35 9 -32 11 -33 62
-33 l53 0 0 43 c0 84 -61 147 -142 147 l-38 0 0 -59z"/>
<path d="M628 720 l-38 -41 0 -260 c0 -175 4 -267 11 -282 27 -51 74 -77 140
-77 l39 0 0 50 0 50 -34 0 c-64 0 -66 7 -66 246 0 129 4 223 10 235 8 14 21
19 50 19 l40 0 0 50 0 50 -57 0 c-53 0 -58 -2 -95 -40z"/>
<path d="M1115 713 c1 -47 2 -48 36 -51 60 -6 59 -4 59 -246 0 -245 -2 -253
-60 -258 -34 -3 -35 -4 -35 -48 l0 -45 39 -3 c51 -4 108 21 129 58 15 24 17
63 17 290 0 225 -2 266 -16 290 -24 39 -65 60 -121 60 l-49 0 1 -47z"/>
<path d="M1480 742 c-67 -36 -71 -55 -68 -339 l3 -253 32 -32 c24 -24 44 -33
83 -38 27 -4 52 -4 55 -2 3 3 5 28 5 57 0 49 -1 51 -32 60 l-33 10 -3 204 c-3
216 0 231 44 231 23 0 24 3 24 60 l0 60 -38 0 c-20 0 -53 -8 -72 -18z"/>
<path d="M1638 754 c-5 -4 -8 -31 -8 -61 0 -51 1 -53 28 -53 37 0 52 -17 52
-57 l0 -33 55 0 55 0 0 59 c0 53 -3 62 -38 101 -33 37 -44 43 -87 47 -28 3
-53 1 -57 -3z"/>
<path d="M1947 753 c-4 -3 -7 -157 -7 -340 l0 -334 50 3 51 3 0 328 c0 180 -3
332 -6 337 -7 11 -78 14 -88 3z"/>
<path d="M2336 744 c-9 -24 -7 -100 3 -126 6 -13 38 -139 72 -280 61 -253 63
-258 88 -260 14 0 39 -2 54 -3 27 -2 28 0 24 29 -3 17 -12 58 -21 91 -8 33
-22 89 -30 125 -9 36 -27 110 -42 165 -14 55 -32 127 -39 160 -24 104 -30 115
-69 115 -22 0 -36 -6 -40 -16z"/>
<path d="M2687 754 c-4 -4 -7 -157 -7 -341 l0 -333 180 0 180 0 0 55 0 55
-125 0 c-93 0 -125 3 -125 13 0 6 -1 134 -3 282 l-2 270 -45 3 c-25 2 -49 0
-53 -4z"/>
<path d="M897 583 c-4 -3 -7 -23 -7 -44 0 -39 -11 -49 -55 -49 -12 0 -26 -7
-29 -15 -6 -18 12 -28 40 -23 15 2 20 -4 22 -31 4 -40 -8 -55 -45 -56 -18 0
-29 -6 -31 -17 -3 -15 4 -18 34 -18 36 0 36 -1 31 -32 -3 -18 -7 -39 -9 -47
-1 -8 4 -16 13 -18 18 -4 29 43 49 202 6 44 13 97 16 118 5 28 3 37 -8 37 -8
0 -18 -3 -21 -7z"/>
<path d="M1004 543 c-7 -39 -14 -48 -34 -53 -30 -7 -34 -35 -5 -35 17 0 20 -6
18 -39 -3 -46 -5 -48 -35 -50 -13 -1 -24 -8 -26 -18 -3 -14 3 -18 23 -18 26 0
27 -2 23 -47 -2 -30 1 -48 9 -50 15 -5 33 36 33 73 0 21 4 24 40 24 33 0 40 3
40 20 0 16 -7 20 -35 20 -34 0 -35 1 -35 39 0 41 13 54 48 44 14 -3 24 2 31
16 11 20 9 21 -25 21 l-37 0 5 50 c4 42 2 50 -12 50 -12 0 -19 -13 -26 -47z"/>
<path d="M2297 575 c-3 -11 -24 -96 -46 -190 -23 -93 -45 -183 -51 -200 -5
-16 -12 -49 -16 -72 l-7 -43 48 4 c53 5 72 18 77 49 3 20 8 22 56 19 47 -4 52
-2 52 17 0 12 -6 39 -12 61 -10 30 -18 40 -38 42 -21 3 -25 7 -22 33 1 17 8
40 14 52 9 18 8 34 -5 74 -10 28 -17 59 -17 68 0 9 -6 36 -14 61 -10 34 -14
40 -19 25z"/>
<path d="M300 409 c0 -57 3 -71 18 -76 35 -13 52 -36 52 -74 0 -41 -20 -69
-51 -69 -16 0 -19 -7 -19 -55 l0 -55 46 0 c98 0 134 50 134 185 0 116 -15 141
-110 183 l-70 31 0 -70z"/>
<path d="M1710 248 c0 -33 -13 -48 -46 -57 -27 -7 -29 -11 -30 -60 0 -28 3
-54 8 -57 5 -4 30 -3 56 1 36 5 55 16 83 45 32 33 36 44 38 94 l2 56 -56 0
c-50 0 -55 -2 -55 -22z"/>
<path d="M73 206 c9 -87 40 -119 125 -130 l52 -7 0 59 c0 57 -1 58 -32 67 -26
8 -34 16 -36 38 -3 26 -6 27 -59 27 l-56 0 6 -54z"/>
</g>
</svg>
